<mxfile host="app.diagrams.net" modified="2020-08-11T03:17:22.703Z" agent="5.0 (Windows NT 10.0; Win64; x64) AppleWebKit/537.36 (KHTML, like Gecko) Chrome/84.0.4147.105 Safari/537.36" etag="eTFaH7pWwhDBbRDnjGus" version="13.6.2" type="github">
  <diagram id="tzFQiV2jVkngU5KN0fAO" name="Page-1">
    <mxGraphModel dx="2031" dy="1089" grid="1" gridSize="10" guides="1" tooltips="1" connect="1" arrows="1" fold="1" page="1" pageScale="1" pageWidth="827" pageHeight="1169" math="0" shadow="0">
      <root>
        <mxCell id="0" />
        <mxCell id="1" parent="0" />
        <mxCell id="PrWiLfrMFr8zSoCpVq47-1" value="START" style="rounded=1;whiteSpace=wrap;html=1;fillColor=#d5e8d4;strokeColor=#82b366;" vertex="1" parent="1">
          <mxGeometry x="350" y="30" width="80" height="30" as="geometry" />
        </mxCell>
        <mxCell id="PrWiLfrMFr8zSoCpVq47-2" value="새 작업서&lt;br&gt;발행" style="rhombus;whiteSpace=wrap;html=1;fillColor=#f8cecc;strokeColor=#b85450;" vertex="1" parent="1">
          <mxGeometry x="481.5" y="1030" width="100" height="80" as="geometry" />
        </mxCell>
        <mxCell id="PrWiLfrMFr8zSoCpVq47-3" value="Del오더&amp;nbsp;&lt;br&gt;작업서 발행" style="rhombus;whiteSpace=wrap;html=1;fillColor=#f8cecc;strokeColor=#b85450;" vertex="1" parent="1">
          <mxGeometry x="481.5" y="150" width="100" height="80" as="geometry" />
        </mxCell>
        <mxCell id="PrWiLfrMFr8zSoCpVq47-4" value="장치상세&lt;br&gt;정보 발행" style="rhombus;whiteSpace=wrap;html=1;fillColor=#f8cecc;strokeColor=#b85450;" vertex="1" parent="1">
          <mxGeometry x="481.5" y="540" width="100" height="80" as="geometry" />
        </mxCell>
        <mxCell id="PrWiLfrMFr8zSoCpVq47-5" value="&lt;span&gt;Del 청약정보&lt;br&gt;&lt;/span&gt;&lt;span&gt;반영&lt;br&gt;&lt;/span&gt;" style="rounded=0;whiteSpace=wrap;html=1;fillColor=#e1d5e7;strokeColor=#9673a6;" vertex="1" parent="1">
          <mxGeometry x="341.5" y="230" width="100" height="45" as="geometry" />
        </mxCell>
        <mxCell id="PrWiLfrMFr8zSoCpVq47-9" value="현재 전용번호에&lt;br&gt;임시 전용번호&lt;br&gt;세팅" style="rounded=0;whiteSpace=wrap;html=1;fillColor=#e1d5e7;strokeColor=#9673a6;" vertex="1" parent="1">
          <mxGeometry x="790" y="960" width="100" height="45" as="geometry" />
        </mxCell>
        <mxCell id="PrWiLfrMFr8zSoCpVq47-10" value="현재 전용번호에&lt;br&gt;선택 회선번호&lt;br&gt;세팅" style="rounded=0;whiteSpace=wrap;html=1;fillColor=#e1d5e7;strokeColor=#9673a6;" vertex="1" parent="1">
          <mxGeometry x="850" y="1085" width="100" height="45" as="geometry" />
        </mxCell>
        <mxCell id="PrWiLfrMFr8zSoCpVq47-12" value="&lt;div style=&quot;font-size: 11px&quot;&gt;&lt;span style=&quot;font-size: 11px&quot;&gt;현재 전용번호 = 사용자 입력&lt;/span&gt;&lt;/div&gt;&lt;font style=&quot;font-size: 11px&quot;&gt;&lt;div style=&quot;font-size: 11px&quot;&gt;&lt;span style=&quot;font-size: 11px&quot;&gt;신규 전용번호 = DEL 전용번호&lt;/span&gt;&lt;/div&gt;&lt;/font&gt;" style="shape=parallelogram;perimeter=parallelogramPerimeter;whiteSpace=wrap;html=1;fixedSize=1;align=left;fillColor=#dae8fc;strokeColor=#6c8ebf;size=21.5;fontSize=11;" vertex="1" parent="1">
          <mxGeometry x="310" y="440" width="163" height="60" as="geometry" />
        </mxCell>
        <mxCell id="PrWiLfrMFr8zSoCpVq47-13" value="&lt;b&gt;&lt;font style=&quot;font-size: 16px&quot; color=&quot;#7a7a7a&quot;&gt;사용자입력&lt;/font&gt;&lt;/b&gt;" style="rounded=0;whiteSpace=wrap;html=1;fillColor=#dae8fc;strokeColor=none;" vertex="1" parent="1">
          <mxGeometry x="707" y="15" width="120" height="60" as="geometry" />
        </mxCell>
        <mxCell id="PrWiLfrMFr8zSoCpVq47-14" value="&lt;b style=&quot;font-size: 12px&quot;&gt;&lt;font style=&quot;font-size: 12px&quot;&gt;&amp;nbsp;작업서 타입 -&amp;gt; 변경&lt;br&gt;&lt;/font&gt;&lt;/b&gt;&lt;div style=&quot;font-size: 12px&quot;&gt;&lt;b&gt;&lt;font style=&quot;font-size: 12px&quot;&gt;&amp;nbsp;작업 타입 -&amp;gt; 회선명 변경&lt;/font&gt;&lt;/b&gt;&lt;/div&gt;" style="shape=hexagon;perimeter=hexagonPerimeter2;whiteSpace=wrap;html=1;fixedSize=1;fontSize=11;fillColor=#D5E8D4;strokeColor=#67AB9F;align=left;" vertex="1" parent="1">
          <mxGeometry x="320" y="302" width="140" height="100" as="geometry" />
        </mxCell>
        <mxCell id="PrWiLfrMFr8zSoCpVq47-17" value="구 회선 조회 하더라도 청약정보가 바뀌면 안됨" style="text;html=1;strokeColor=none;fillColor=none;align=center;verticalAlign=middle;whiteSpace=wrap;rounded=0;fontSize=11;" vertex="1" parent="1">
          <mxGeometry x="20" y="140" width="180" height="50" as="geometry" />
        </mxCell>
        <mxCell id="PrWiLfrMFr8zSoCpVq47-18" value="" style="curved=1;endArrow=classic;html=1;fontSize=11;exitX=0.5;exitY=1;exitDx=0;exitDy=0;" edge="1" parent="1" source="PrWiLfrMFr8zSoCpVq47-17">
          <mxGeometry width="50" height="50" relative="1" as="geometry">
            <mxPoint x="390" y="480" as="sourcePoint" />
            <mxPoint x="330" y="180" as="targetPoint" />
            <Array as="points">
              <mxPoint x="230" y="320" />
              <mxPoint x="240" y="140" />
            </Array>
          </mxGeometry>
        </mxCell>
        <mxCell id="PrWiLfrMFr8zSoCpVq47-20" value="&lt;b style=&quot;font-size: 12px&quot;&gt;&lt;font style=&quot;font-size: 12px&quot;&gt;&amp;nbsp;작업서 타입 -&amp;gt; 변경&lt;br&gt;&lt;/font&gt;&lt;/b&gt;&lt;div style=&quot;font-size: 12px&quot;&gt;&lt;b&gt;&lt;font style=&quot;font-size: 12px&quot;&gt;&amp;nbsp;작업 타입 -&amp;gt; 회선명 변경&lt;/font&gt;&lt;/b&gt;&lt;/div&gt;" style="shape=hexagon;perimeter=hexagonPerimeter2;whiteSpace=wrap;html=1;fixedSize=1;fontSize=11;fillColor=#D5E8D4;strokeColor=#67AB9F;align=left;" vertex="1" parent="1">
          <mxGeometry x="333" y="640" width="140" height="100" as="geometry" />
        </mxCell>
        <mxCell id="PrWiLfrMFr8zSoCpVq47-21" value="임시 전용번호&lt;br&gt;여부" style="rhombus;whiteSpace=wrap;html=1;fillColor=#f8cecc;strokeColor=#b85450;" vertex="1" parent="1">
          <mxGeometry x="353" y="780" width="100" height="80" as="geometry" />
        </mxCell>
        <mxCell id="PrWiLfrMFr8zSoCpVq47-22" value="&lt;div style=&quot;font-size: 11px&quot;&gt;&lt;span style=&quot;font-size: 11px&quot;&gt;현재 전용번호 = 임시 전용 번호&lt;/span&gt;&lt;/div&gt;&lt;font style=&quot;font-size: 11px&quot;&gt;&lt;div style=&quot;font-size: 11px&quot;&gt;&lt;span style=&quot;font-size: 11px&quot;&gt;신규 전용번호 = 사용자 입력&lt;/span&gt;&lt;/div&gt;&lt;/font&gt;" style="shape=parallelogram;perimeter=parallelogramPerimeter;whiteSpace=wrap;html=1;fixedSize=1;align=left;fillColor=#dae8fc;strokeColor=#6c8ebf;size=21.5;fontSize=11;" vertex="1" parent="1">
          <mxGeometry x="178.5" y="900" width="163" height="60" as="geometry" />
        </mxCell>
        <mxCell id="PrWiLfrMFr8zSoCpVq47-23" value="&lt;div style=&quot;font-size: 11px&quot;&gt;&lt;span style=&quot;font-size: 11px&quot;&gt;현재 전용번호 = 선택한 회선번호&lt;/span&gt;&lt;/div&gt;&lt;font style=&quot;font-size: 11px&quot;&gt;&lt;div style=&quot;font-size: 11px&quot;&gt;&lt;span style=&quot;font-size: 11px&quot;&gt;신규 전용번호 = 사용자 입력&lt;/span&gt;&lt;/div&gt;&lt;/font&gt;" style="shape=parallelogram;perimeter=parallelogramPerimeter;whiteSpace=wrap;html=1;fixedSize=1;align=left;fillColor=#dae8fc;strokeColor=#6c8ebf;size=21.5;fontSize=11;" vertex="1" parent="1">
          <mxGeometry x="460" y="900" width="170" height="60" as="geometry" />
        </mxCell>
        <mxCell id="PrWiLfrMFr8zSoCpVq47-24" value="&lt;b style=&quot;font-size: 12px&quot;&gt;&lt;font style=&quot;font-size: 12px&quot;&gt;&amp;nbsp;작업서 타입 -&amp;gt; 변경&lt;br&gt;&lt;/font&gt;&lt;/b&gt;&lt;div style=&quot;font-size: 12px&quot;&gt;&lt;b&gt;&lt;font style=&quot;font-size: 12px&quot;&gt;&amp;nbsp;작업 타입 -&amp;gt; 회선명 변경&lt;/font&gt;&lt;/b&gt;&lt;/div&gt;" style="shape=hexagon;perimeter=hexagonPerimeter2;whiteSpace=wrap;html=1;fixedSize=1;fontSize=11;fillColor=#D5E8D4;strokeColor=#67AB9F;align=left;" vertex="1" parent="1">
          <mxGeometry x="333" y="1150" width="140" height="100" as="geometry" />
        </mxCell>
        <mxCell id="PrWiLfrMFr8zSoCpVq47-25" value="&lt;div style=&quot;font-size: 11px&quot;&gt;&lt;span style=&quot;font-size: 11px&quot;&gt;현재 전용번호 = 사용자 입력&lt;/span&gt;&lt;/div&gt;&lt;font style=&quot;font-size: 11px&quot;&gt;&lt;div style=&quot;font-size: 11px&quot;&gt;&lt;span style=&quot;font-size: 11px&quot;&gt;신규 전용번호 = 사용자 입력&lt;/span&gt;&lt;/div&gt;&lt;/font&gt;" style="shape=parallelogram;perimeter=parallelogramPerimeter;whiteSpace=wrap;html=1;fixedSize=1;align=left;fillColor=#dae8fc;strokeColor=#6c8ebf;size=21.5;fontSize=11;" vertex="1" parent="1">
          <mxGeometry x="321.5" y="1300" width="163" height="60" as="geometry" />
        </mxCell>
        <mxCell id="PrWiLfrMFr8zSoCpVq47-27" value="작업서&amp;nbsp;&lt;br&gt;발행 시점" style="rhombus;whiteSpace=wrap;html=1;fillColor=#f8cecc;strokeColor=#b85450;" vertex="1" parent="1">
          <mxGeometry x="1474.5" y="107" width="100" height="80" as="geometry" />
        </mxCell>
        <mxCell id="PrWiLfrMFr8zSoCpVq47-28" value="&lt;span&gt;Del 청약정보&lt;br&gt;&lt;/span&gt;&lt;span&gt;반영&lt;br&gt;&lt;/span&gt;" style="rounded=0;whiteSpace=wrap;html=1;fillColor=#e1d5e7;strokeColor=#9673a6;" vertex="1" parent="1">
          <mxGeometry x="1081.5" y="205" width="100" height="45" as="geometry" />
        </mxCell>
        <mxCell id="PrWiLfrMFr8zSoCpVq47-29" value="&lt;div style=&quot;font-size: 11px&quot;&gt;&lt;span style=&quot;font-size: 11px&quot;&gt;현재 전용번호 = 사용자 입력&lt;/span&gt;&lt;/div&gt;&lt;font style=&quot;font-size: 11px&quot;&gt;&lt;div style=&quot;font-size: 11px&quot;&gt;&lt;span style=&quot;font-size: 11px&quot;&gt;신규 전용번호 = DEL 전용번호&lt;/span&gt;&lt;/div&gt;&lt;/font&gt;" style="shape=parallelogram;perimeter=parallelogramPerimeter;whiteSpace=wrap;html=1;fixedSize=1;align=left;fillColor=#dae8fc;strokeColor=#6c8ebf;size=21.5;fontSize=11;" vertex="1" parent="1">
          <mxGeometry x="1050" y="537" width="163" height="60" as="geometry" />
        </mxCell>
        <mxCell id="PrWiLfrMFr8zSoCpVq47-30" value="&lt;b style=&quot;font-size: 12px&quot;&gt;&lt;font style=&quot;font-size: 12px&quot;&gt;&amp;nbsp;작업서 타입 -&amp;gt; 변경&lt;br&gt;&lt;/font&gt;&lt;/b&gt;&lt;div style=&quot;font-size: 12px&quot;&gt;&lt;b&gt;&lt;font style=&quot;font-size: 12px&quot;&gt;&amp;nbsp;작업 타입 -&amp;gt; 회선명 변경&lt;/font&gt;&lt;/b&gt;&lt;/div&gt;" style="shape=hexagon;perimeter=hexagonPerimeter2;whiteSpace=wrap;html=1;fixedSize=1;fontSize=11;fillColor=#D5E8D4;strokeColor=#67AB9F;align=left;" vertex="1" parent="1">
          <mxGeometry x="1061.5" y="277" width="140" height="100" as="geometry" />
        </mxCell>
        <mxCell id="PrWiLfrMFr8zSoCpVq47-31" value="&lt;b style=&quot;font-size: 12px&quot;&gt;&lt;font style=&quot;font-size: 12px&quot;&gt;&amp;nbsp;작업서 타입 -&amp;gt; 변경&lt;br&gt;&lt;/font&gt;&lt;/b&gt;&lt;div style=&quot;font-size: 12px&quot;&gt;&lt;b&gt;&lt;font style=&quot;font-size: 12px&quot;&gt;&amp;nbsp;작업 타입 -&amp;gt; 회선명 변경&lt;/font&gt;&lt;/b&gt;&lt;/div&gt;" style="shape=hexagon;perimeter=hexagonPerimeter2;whiteSpace=wrap;html=1;fixedSize=1;fontSize=11;fillColor=#D5E8D4;strokeColor=#67AB9F;align=left;" vertex="1" parent="1">
          <mxGeometry x="1454.5" y="277" width="140" height="100" as="geometry" />
        </mxCell>
        <mxCell id="PrWiLfrMFr8zSoCpVq47-32" value="임시 전용번호&lt;br&gt;여부" style="rhombus;whiteSpace=wrap;html=1;fillColor=#f8cecc;strokeColor=#b85450;" vertex="1" parent="1">
          <mxGeometry x="1474.5" y="417" width="100" height="80" as="geometry" />
        </mxCell>
        <mxCell id="PrWiLfrMFr8zSoCpVq47-33" value="&lt;div style=&quot;font-size: 11px&quot;&gt;&lt;span style=&quot;font-size: 11px&quot;&gt;현재 전용번호 = 임시 전용 번호&lt;/span&gt;&lt;/div&gt;&lt;font style=&quot;font-size: 11px&quot;&gt;&lt;div style=&quot;font-size: 11px&quot;&gt;&lt;span style=&quot;font-size: 11px&quot;&gt;신규 전용번호 = 사용자 입력&lt;/span&gt;&lt;/div&gt;&lt;/font&gt;" style="shape=parallelogram;perimeter=parallelogramPerimeter;whiteSpace=wrap;html=1;fixedSize=1;align=left;fillColor=#dae8fc;strokeColor=#6c8ebf;size=21.5;fontSize=11;" vertex="1" parent="1">
          <mxGeometry x="1300" y="537" width="163" height="60" as="geometry" />
        </mxCell>
        <mxCell id="PrWiLfrMFr8zSoCpVq47-34" value="&lt;div style=&quot;font-size: 11px&quot;&gt;&lt;span style=&quot;font-size: 11px&quot;&gt;현재 전용번호 = 선택한 회선번호&lt;/span&gt;&lt;/div&gt;&lt;font style=&quot;font-size: 11px&quot;&gt;&lt;div style=&quot;font-size: 11px&quot;&gt;&lt;span style=&quot;font-size: 11px&quot;&gt;신규 전용번호 = 사용자 입력&lt;/span&gt;&lt;/div&gt;&lt;/font&gt;" style="shape=parallelogram;perimeter=parallelogramPerimeter;whiteSpace=wrap;html=1;fixedSize=1;align=left;fillColor=#dae8fc;strokeColor=#6c8ebf;size=21.5;fontSize=11;" vertex="1" parent="1">
          <mxGeometry x="1594.5" y="537" width="170" height="60" as="geometry" />
        </mxCell>
        <mxCell id="PrWiLfrMFr8zSoCpVq47-35" value="&lt;b style=&quot;font-size: 12px&quot;&gt;&lt;font style=&quot;font-size: 12px&quot;&gt;&amp;nbsp;작업서 타입 -&amp;gt; 변경&lt;br&gt;&lt;/font&gt;&lt;/b&gt;&lt;div style=&quot;font-size: 12px&quot;&gt;&lt;b&gt;&lt;font style=&quot;font-size: 12px&quot;&gt;&amp;nbsp;작업 타입 -&amp;gt; 회선명 변경&lt;/font&gt;&lt;/b&gt;&lt;/div&gt;" style="shape=hexagon;perimeter=hexagonPerimeter2;whiteSpace=wrap;html=1;fixedSize=1;fontSize=11;fillColor=#D5E8D4;strokeColor=#67AB9F;align=left;" vertex="1" parent="1">
          <mxGeometry x="1881.5" y="277" width="140" height="100" as="geometry" />
        </mxCell>
        <mxCell id="PrWiLfrMFr8zSoCpVq47-36" value="&lt;div style=&quot;font-size: 11px&quot;&gt;&lt;span style=&quot;font-size: 11px&quot;&gt;현재 전용번호 = 사용자 입력&lt;/span&gt;&lt;/div&gt;&lt;font style=&quot;font-size: 11px&quot;&gt;&lt;div style=&quot;font-size: 11px&quot;&gt;&lt;span style=&quot;font-size: 11px&quot;&gt;신규 전용번호 = 사용자 입력&lt;/span&gt;&lt;/div&gt;&lt;/font&gt;" style="shape=parallelogram;perimeter=parallelogramPerimeter;whiteSpace=wrap;html=1;fixedSize=1;align=left;fillColor=#dae8fc;strokeColor=#6c8ebf;size=21.5;fontSize=11;" vertex="1" parent="1">
          <mxGeometry x="1870" y="537" width="163" height="60" as="geometry" />
        </mxCell>
        <mxCell id="PrWiLfrMFr8zSoCpVq47-38" value="현재 전용번호로&lt;br&gt;기존 진행 작업서&lt;br&gt;있는지 체크" style="rounded=0;whiteSpace=wrap;html=1;fillColor=#e1d5e7;strokeColor=#9673a6;" vertex="1" parent="1">
          <mxGeometry x="1474.5" y="710" width="100" height="45" as="geometry" />
        </mxCell>
        <mxCell id="PrWiLfrMFr8zSoCpVq47-39" value="&lt;font style=&quot;font-size: 10px&quot;&gt;Default&lt;br&gt;회선변경 - 회선유지&lt;br&gt;구성 완료 상태 생성&lt;br&gt;Del 청약인 경우&amp;nbsp;&lt;br&gt;오더 접수&lt;br&gt;&lt;/font&gt;" style="rounded=0;whiteSpace=wrap;html=1;fillColor=#e1d5e7;strokeColor=#9673a6;" vertex="1" parent="1">
          <mxGeometry x="1474.5" y="1271" width="100" height="70" as="geometry" />
        </mxCell>
        <mxCell id="PrWiLfrMFr8zSoCpVq47-40" value="END" style="rounded=1;whiteSpace=wrap;html=1;fillColor=#0050ef;strokeColor=#001DBC;fontColor=#ffffff;" vertex="1" parent="1">
          <mxGeometry x="1504.5" y="1340" width="40" height="20" as="geometry" />
        </mxCell>
        <mxCell id="PrWiLfrMFr8zSoCpVq47-41" value="" style="endArrow=none;html=1;fontSize=11;entryX=0;entryY=0.5;entryDx=0;entryDy=0;exitX=0.5;exitY=0;exitDx=0;exitDy=0;" edge="1" parent="1" source="PrWiLfrMFr8zSoCpVq47-28" target="PrWiLfrMFr8zSoCpVq47-27">
          <mxGeometry width="50" height="50" relative="1" as="geometry">
            <mxPoint x="1070" y="520" as="sourcePoint" />
            <mxPoint x="1120" y="470" as="targetPoint" />
            <Array as="points">
              <mxPoint x="1130" y="147" />
            </Array>
          </mxGeometry>
        </mxCell>
        <mxCell id="PrWiLfrMFr8zSoCpVq47-42" value="" style="endArrow=none;html=1;fontSize=11;entryX=0.5;entryY=1;entryDx=0;entryDy=0;" edge="1" parent="1" source="PrWiLfrMFr8zSoCpVq47-31" target="PrWiLfrMFr8zSoCpVq47-27">
          <mxGeometry width="50" height="50" relative="1" as="geometry">
            <mxPoint x="1070" y="520" as="sourcePoint" />
            <mxPoint x="1120" y="470" as="targetPoint" />
          </mxGeometry>
        </mxCell>
        <mxCell id="PrWiLfrMFr8zSoCpVq47-43" value="" style="endArrow=none;html=1;fontSize=11;entryX=1;entryY=0.5;entryDx=0;entryDy=0;exitX=0.5;exitY=0;exitDx=0;exitDy=0;" edge="1" parent="1" source="PrWiLfrMFr8zSoCpVq47-35" target="PrWiLfrMFr8zSoCpVq47-27">
          <mxGeometry width="50" height="50" relative="1" as="geometry">
            <mxPoint x="1070" y="520" as="sourcePoint" />
            <mxPoint x="1120" y="470" as="targetPoint" />
            <Array as="points">
              <mxPoint x="1952" y="147" />
            </Array>
          </mxGeometry>
        </mxCell>
        <mxCell id="PrWiLfrMFr8zSoCpVq47-44" value="" style="endArrow=none;html=1;fontSize=11;entryX=0.5;entryY=1;entryDx=0;entryDy=0;" edge="1" parent="1" source="PrWiLfrMFr8zSoCpVq47-32" target="PrWiLfrMFr8zSoCpVq47-31">
          <mxGeometry width="50" height="50" relative="1" as="geometry">
            <mxPoint x="1070" y="520" as="sourcePoint" />
            <mxPoint x="1120" y="470" as="targetPoint" />
          </mxGeometry>
        </mxCell>
        <mxCell id="PrWiLfrMFr8zSoCpVq47-45" value="" style="endArrow=none;html=1;fontSize=11;entryX=0;entryY=0.5;entryDx=0;entryDy=0;exitX=0.5;exitY=0;exitDx=0;exitDy=0;" edge="1" parent="1" source="PrWiLfrMFr8zSoCpVq47-33" target="PrWiLfrMFr8zSoCpVq47-32">
          <mxGeometry width="50" height="50" relative="1" as="geometry">
            <mxPoint x="1070" y="520" as="sourcePoint" />
            <mxPoint x="1120" y="470" as="targetPoint" />
            <Array as="points">
              <mxPoint x="1382" y="457" />
            </Array>
          </mxGeometry>
        </mxCell>
        <mxCell id="PrWiLfrMFr8zSoCpVq47-49" value="" style="endArrow=none;html=1;fontSize=11;entryX=1;entryY=0.5;entryDx=0;entryDy=0;exitX=0.5;exitY=0;exitDx=0;exitDy=0;" edge="1" parent="1" source="PrWiLfrMFr8zSoCpVq47-34" target="PrWiLfrMFr8zSoCpVq47-32">
          <mxGeometry width="50" height="50" relative="1" as="geometry">
            <mxPoint x="1070" y="520" as="sourcePoint" />
            <mxPoint x="1120" y="470" as="targetPoint" />
            <Array as="points">
              <mxPoint x="1680" y="457" />
            </Array>
          </mxGeometry>
        </mxCell>
        <mxCell id="PrWiLfrMFr8zSoCpVq47-50" value="" style="endArrow=none;html=1;fontSize=11;entryX=0.5;entryY=1;entryDx=0;entryDy=0;exitX=0.5;exitY=0;exitDx=0;exitDy=0;" edge="1" parent="1" source="PrWiLfrMFr8zSoCpVq47-30" target="PrWiLfrMFr8zSoCpVq47-28">
          <mxGeometry width="50" height="50" relative="1" as="geometry">
            <mxPoint x="1070" y="520" as="sourcePoint" />
            <mxPoint x="1120" y="470" as="targetPoint" />
          </mxGeometry>
        </mxCell>
        <mxCell id="PrWiLfrMFr8zSoCpVq47-51" value="" style="endArrow=none;html=1;fontSize=11;entryX=0.5;entryY=1;entryDx=0;entryDy=0;" edge="1" parent="1" source="PrWiLfrMFr8zSoCpVq47-29" target="PrWiLfrMFr8zSoCpVq47-30">
          <mxGeometry width="50" height="50" relative="1" as="geometry">
            <mxPoint x="1070" y="520" as="sourcePoint" />
            <mxPoint x="1120" y="470" as="targetPoint" />
          </mxGeometry>
        </mxCell>
        <mxCell id="PrWiLfrMFr8zSoCpVq47-52" value="" style="endArrow=none;html=1;fontSize=11;entryX=0.5;entryY=1;entryDx=0;entryDy=0;exitX=0.5;exitY=0;exitDx=0;exitDy=0;" edge="1" parent="1" source="PrWiLfrMFr8zSoCpVq47-36" target="PrWiLfrMFr8zSoCpVq47-35">
          <mxGeometry width="50" height="50" relative="1" as="geometry">
            <mxPoint x="1070" y="520" as="sourcePoint" />
            <mxPoint x="1120" y="470" as="targetPoint" />
          </mxGeometry>
        </mxCell>
        <mxCell id="PrWiLfrMFr8zSoCpVq47-53" value="" style="endArrow=none;html=1;fontSize=11;exitX=0;exitY=0.5;exitDx=0;exitDy=0;" edge="1" parent="1" source="PrWiLfrMFr8zSoCpVq47-54" target="PrWiLfrMFr8zSoCpVq47-29">
          <mxGeometry width="50" height="50" relative="1" as="geometry">
            <mxPoint x="1250" y="750" as="sourcePoint" />
            <mxPoint x="1120" y="750" as="targetPoint" />
            <Array as="points">
              <mxPoint x="1130" y="652" />
            </Array>
          </mxGeometry>
        </mxCell>
        <mxCell id="PrWiLfrMFr8zSoCpVq47-54" value="" style="ellipse;whiteSpace=wrap;html=1;strokeColor=#67AB9F;fillColor=#D5E8D4;fontSize=11;" vertex="1" parent="1">
          <mxGeometry x="1511.75" y="640" width="25.5" height="23" as="geometry" />
        </mxCell>
        <mxCell id="PrWiLfrMFr8zSoCpVq47-55" value="" style="endArrow=none;html=1;fontSize=11;entryX=0.5;entryY=1;entryDx=0;entryDy=0;exitX=1;exitY=0.5;exitDx=0;exitDy=0;" edge="1" parent="1" source="PrWiLfrMFr8zSoCpVq47-54" target="PrWiLfrMFr8zSoCpVq47-34">
          <mxGeometry width="50" height="50" relative="1" as="geometry">
            <mxPoint x="1070" y="800" as="sourcePoint" />
            <mxPoint x="1120" y="750" as="targetPoint" />
            <Array as="points">
              <mxPoint x="1680" y="652" />
            </Array>
          </mxGeometry>
        </mxCell>
        <mxCell id="PrWiLfrMFr8zSoCpVq47-56" value="" style="endArrow=none;html=1;fontSize=11;entryX=0.5;entryY=1;entryDx=0;entryDy=0;exitX=1;exitY=0.5;exitDx=0;exitDy=0;" edge="1" parent="1" source="PrWiLfrMFr8zSoCpVq47-54" target="PrWiLfrMFr8zSoCpVq47-36">
          <mxGeometry width="50" height="50" relative="1" as="geometry">
            <mxPoint x="1070" y="800" as="sourcePoint" />
            <mxPoint x="1950" y="600" as="targetPoint" />
            <Array as="points">
              <mxPoint x="1952" y="650" />
            </Array>
          </mxGeometry>
        </mxCell>
        <mxCell id="PrWiLfrMFr8zSoCpVq47-57" value="" style="endArrow=none;html=1;fontSize=11;entryX=0.5;entryY=1;entryDx=0;entryDy=0;exitX=0.5;exitY=0;exitDx=0;exitDy=0;" edge="1" parent="1" source="PrWiLfrMFr8zSoCpVq47-38" target="PrWiLfrMFr8zSoCpVq47-54">
          <mxGeometry width="50" height="50" relative="1" as="geometry">
            <mxPoint x="1070" y="800" as="sourcePoint" />
            <mxPoint x="1120" y="750" as="targetPoint" />
          </mxGeometry>
        </mxCell>
        <mxCell id="PrWiLfrMFr8zSoCpVq47-58" value="진행중&lt;br&gt;작업서 존재&lt;br&gt;YN" style="rhombus;whiteSpace=wrap;html=1;fillColor=#f8cecc;strokeColor=#b85450;" vertex="1" parent="1">
          <mxGeometry x="1474.5" y="790" width="100" height="80" as="geometry" />
        </mxCell>
        <mxCell id="PrWiLfrMFr8zSoCpVq47-59" value="진행 작업서 존재 알림 팝업" style="rounded=0;whiteSpace=wrap;html=1;fillColor=#e1d5e7;strokeColor=#9673a6;" vertex="1" parent="1">
          <mxGeometry x="1400" y="920" width="100" height="45" as="geometry" />
        </mxCell>
        <mxCell id="PrWiLfrMFr8zSoCpVq47-61" value="구회선 조회" style="rounded=0;whiteSpace=wrap;html=1;fillColor=#e1d5e7;strokeColor=#9673a6;" vertex="1" parent="1">
          <mxGeometry x="1554" y="920" width="100" height="45" as="geometry" />
        </mxCell>
      </root>
    </mxGraphModel>
  </diagram>
</mxfile>
